<?xml version="1.0" encoding="UTF-8" standalone="no"?>

<svg width="150" height="34.3 " viewBox="0 0 150 35" version="1.1" xmlns="http://www.w3.org/2000/svg" xmlns:xlink="http://www.w3.org/1999/xlink" xml:space="preserve" xmlns:serif="http://www.serif.com/" style="fill-rule:evenodd;clip-rule:evenodd;stroke-linejoin:round;stroke-miterlimit:1.41421;">
    <g transform="matrix(0.505462,0,0,0.505462,-169.261,-97.2889)">
        <g transform="matrix(6.12323e-17,1,-1,6.12323e-17,432.534,214.62)">
            <path d="M0,0.205L14.24,6.307L14.24,-5.949L0,0.205ZM28.377,-18.46L28.377,-11.848L19.783,-8.237L19.783,8.596L28.377,12.258L28.377,18.665L-7.476,3.001L-7.476,-2.796L28.377,-18.46" style="fill:rgb(12,0,72);fill-rule:nonzero;"/>
        </g>
        <g transform="matrix(6.12323e-17,1,-1,6.12323e-17,459.361,242.997)">
            <path d="M0,-6.306L0,0L-29.801,0L-29.801,11.29L-35.598,11.29L-35.598,-17.596L-29.801,-17.596L-29.801,-6.306L0,-6.306" style="fill:rgb(12,0,72);fill-rule:nonzero;"/>
        </g>
        <g transform="matrix(6.12323e-17,1,-1,6.12323e-17,504.859,227.995)">
            <path d="M0,16.986L15.002,16.986L15.002,23.241L-20.597,23.241L-20.597,16.986L-5.797,16.986L-5.797,0L-20.597,0L-20.597,-6.255L15.002,-6.255L15.002,0L0,0L0,16.986" style="fill:rgb(12,0,72);fill-rule:nonzero;"/>
        </g>
        <g transform="matrix(6.12323e-17,1,-1,6.12323e-17,536.106,212.535)">
            <path d="M0,0.102C0,7.171 5.645,12.104 12.612,12.104C19.579,12.104 25.326,7.069 25.326,0C25.326,-7.068 19.681,-12.002 12.714,-12.002C5.747,-12.002 0,-6.967 0,0.102M31.072,0.102C31.072,11.035 22.784,18.664 12.714,18.664C2.644,18.664 -5.747,10.934 -5.747,0C-5.747,-10.934 2.543,-18.562 12.612,-18.562C22.682,-18.562 31.072,-10.832 31.072,0.102" style="fill:rgb(12,0,72);fill-rule:nonzero;"/>
        </g>
        <g transform="matrix(6.12323e-17,1,-1,6.12323e-17,575.875,213.094)">
            <path d="M0,-0.51L0,8.593L11.951,8.593L11.951,-0.56C11.951,-5.036 9.612,-7.884 5.951,-7.884C2.035,-7.884 0,-5.138 0,-0.51M29.903,-7.985L17.495,0.762L17.495,8.593L29.903,8.593L29.903,14.849L-5.695,14.849L-5.695,-1.018C-5.695,-9.206 -1.373,-14.241 5.594,-14.241C11.493,-14.241 15.054,-10.732 16.427,-5.748L29.903,-15.359L29.903,-7.985" style="fill:rgb(12,0,72);fill-rule:nonzero;"/>
        </g>
        <g transform="matrix(6.12323e-17,1,-1,6.12323e-17,613.16,214.62)">
            <path d="M0,0.203L14.24,-5.951L14.24,6.306L0,0.203ZM-7.476,3L28.378,18.664L28.378,12.256L19.783,8.594L19.783,-8.239L28.378,-11.85L28.378,-18.461L-7.476,-2.797L-7.476,3" style="fill:rgb(12,0,72);fill-rule:nonzero;"/>
        </g>
        <g transform="matrix(6.12323e-17,1,-1,6.12323e-17,398.197,238.65)">
            <path d="M0,23.217C-0.977,24.911 -1.535,26.808 -1.633,28.78C-4.213,28.572 -6.624,27.46 -8.463,25.621C-10.523,23.561 -11.658,20.821 -11.658,17.907C-11.658,15.094 -10.601,12.444 -8.675,10.41L-8.452,10.202C-7.439,9.188 -6.88,7.84 -6.88,6.406C-6.88,4.972 -7.439,3.624 -8.452,2.61C-10.546,0.517 -13.951,0.517 -16.044,2.61C-17.055,3.622 -17.612,4.967 -17.612,6.399C-17.612,6.657 -17.594,6.912 -17.558,7.164C-19.252,6.186 -21.15,5.628 -23.122,5.528C-22.915,2.946 -21.804,0.531 -19.963,-1.309C-15.709,-5.563 -8.787,-5.563 -4.533,-1.309C-2.473,0.752 -1.338,3.492 -1.338,6.405L-1.338,6.406C-1.338,9.218 -2.395,11.869 -4.321,13.903L-4.543,14.111C-5.557,15.125 -6.116,16.473 -6.116,17.907C-6.116,19.341 -5.557,20.689 -4.543,21.702C-3.345,22.901 -1.648,23.446 0,23.217" style="fill:rgb(0,188,231);fill-rule:nonzero;"/>
        </g>
        <g transform="matrix(6.12323e-17,1,-1,6.12323e-17,367.396,260.313)">
            <path d="M0,-1.394C0,1.521 -1.134,4.26 -3.195,6.321C-7.4,10.527 -14.212,10.575 -18.477,6.466L-18.623,6.319C-19.636,5.305 -20.984,4.746 -22.418,4.746C-23.852,4.746 -25.2,5.305 -26.214,6.319C-27.225,7.33 -27.782,8.676 -27.782,10.107C-27.782,10.365 -27.764,10.62 -27.727,10.873C-29.422,9.895 -31.32,9.336 -33.292,9.237C-33.085,6.653 -31.973,4.24 -30.133,2.4C-28.073,0.339 -25.333,-0.796 -22.418,-0.796C-19.571,-0.796 -16.889,0.287 -14.846,2.26L-14.706,2.402C-13.692,3.416 -12.344,3.975 -10.91,3.975C-9.476,3.975 -8.128,3.416 -7.115,2.402C-6.101,1.388 -5.542,0.04 -5.542,-1.394C-5.542,-2.827 -6.101,-4.175 -7.115,-5.189C-8.313,-6.388 -10.01,-6.933 -11.657,-6.704C-10.681,-8.398 -10.123,-10.295 -10.024,-12.267C-7.445,-12.059 -5.034,-10.946 -3.195,-9.109C-1.134,-7.048 0,-4.308 0,-1.394" style="fill:rgb(0,188,231);fill-rule:nonzero;"/>
        </g>
        <g transform="matrix(6.12323e-17,1,-1,6.12323e-17,358.115,237.261)">
            <path d="M0,13.22C-0.207,15.803 -1.319,18.216 -3.159,20.056C-5.22,22.117 -7.96,23.252 -10.874,23.252C-13.788,23.252 -16.528,22.117 -18.589,20.056C-20.649,17.995 -21.784,15.256 -21.784,12.341C-21.784,9.527 -20.725,6.874 -18.797,4.84L-18.579,4.636C-17.565,3.622 -17.007,2.275 -17.007,0.841C-17.007,-0.593 -17.565,-1.941 -18.579,-2.955C-19.778,-4.153 -21.474,-4.699 -23.122,-4.469C-22.146,-6.164 -21.587,-8.061 -21.489,-10.032C-18.909,-9.824 -16.498,-8.712 -14.66,-6.875C-12.599,-4.814 -11.464,-2.074 -11.464,0.841C-11.464,3.654 -12.521,6.303 -14.447,8.338L-14.67,8.546C-15.684,9.56 -16.242,10.908 -16.242,12.341C-16.242,13.775 -15.684,15.123 -14.67,16.137C-13.656,17.151 -12.308,17.71 -10.874,17.71C-9.44,17.71 -8.092,17.151 -7.079,16.137C-6.067,15.126 -5.51,13.78 -5.51,12.348C-5.51,12.091 -5.528,11.836 -5.565,11.583C-3.87,12.56 -1.973,13.12 0,13.22" style="fill:rgb(0,188,231);fill-rule:nonzero;"/>
        </g>
        <g transform="matrix(6.12323e-17,1,-1,6.12323e-17,359.539,225.768)">
            <path d="M0,-19.866C-0.207,-17.282 -1.319,-14.869 -3.159,-13.029C-5.22,-10.968 -7.96,-9.833 -10.874,-9.833C-13.722,-9.833 -16.403,-10.917 -18.447,-12.89L-18.587,-13.031C-19.601,-14.045 -20.949,-14.604 -22.382,-14.604C-23.816,-14.604 -25.164,-14.045 -26.178,-13.031C-27.192,-12.018 -27.75,-10.67 -27.75,-9.236C-27.75,-7.802 -27.192,-6.454 -26.178,-5.44C-24.98,-4.241 -23.283,-3.697 -21.635,-3.926C-22.611,-2.232 -23.17,-0.334 -23.268,1.637C-25.849,1.429 -28.259,0.317 -30.097,-1.521C-32.158,-3.582 -33.293,-6.322 -33.293,-9.237C-33.293,-12.151 -32.158,-14.891 -30.097,-16.951C-25.893,-21.156 -19.081,-21.205 -14.816,-17.097L-14.67,-16.948C-12.577,-14.855 -9.172,-14.855 -7.078,-16.948C-6.067,-17.959 -5.51,-19.305 -5.51,-20.737C-5.51,-20.994 -5.528,-21.249 -5.565,-21.503C-3.871,-20.525 -1.973,-19.966 0,-19.866" style="fill:rgb(0,188,231);fill-rule:nonzero;"/>
        </g>
        <g transform="matrix(6.12323e-17,1,-1,6.12323e-17,378.904,248.813)">
            <path d="M0,-1.386C0,1.426 -1.057,4.076 -2.983,6.11L-3.206,6.319C-4.217,7.33 -4.774,8.676 -4.774,10.107C-4.774,10.365 -4.756,10.62 -4.72,10.873C-6.414,9.895 -8.312,9.336 -10.283,9.237C-10.085,6.752 -9.048,4.423 -7.331,2.612L-7.115,2.409C-6.101,1.395 -5.543,0.048 -5.543,-1.386C-5.543,-2.82 -6.101,-4.168 -7.115,-5.182C-8.313,-6.381 -10.01,-6.926 -11.658,-6.696C-10.681,-8.39 -10.123,-10.288 -10.025,-12.259C-7.445,-12.051 -5.034,-10.94 -3.196,-9.101C-1.135,-7.041 0,-4.301 0,-1.386" style="fill:rgb(12,0,72);fill-rule:nonzero;"/>
        </g>
        <g transform="matrix(6.12323e-17,1,-1,6.12323e-17,346.949,248.769)">
            <path d="M0,-9.455C-0.207,-6.872 -1.319,-4.458 -3.159,-2.618C-7.364,1.587 -14.176,1.636 -18.441,-2.473L-18.586,-2.62C-19.785,-3.819 -21.482,-4.365 -23.129,-4.135C-22.153,-5.828 -21.594,-7.727 -21.496,-9.698C-18.982,-9.495 -16.629,-8.434 -14.809,-6.679L-14.67,-6.537C-13.656,-5.523 -12.308,-4.965 -10.874,-4.965C-9.44,-4.965 -8.092,-5.523 -7.078,-6.537C-6.067,-7.548 -5.51,-8.894 -5.51,-10.326C-5.51,-10.583 -5.528,-10.838 -5.564,-11.091C-3.87,-10.113 -1.972,-9.554 0,-9.455" style="fill:rgb(12,0,72);fill-rule:nonzero;"/>
        </g>
        <g transform="matrix(6.12323e-17,1,-1,6.12323e-17,363.969,215.634)">
            <path d="M0,12.005C-0.977,13.699 -1.535,15.596 -1.633,17.569C-4.214,17.36 -6.625,16.248 -8.463,14.41C-10.523,12.349 -11.658,9.609 -11.658,6.695C-11.658,3.883 -10.601,1.233 -8.675,-0.801L-8.453,-1.01C-7.441,-2.021 -6.884,-3.367 -6.884,-4.799C-6.884,-5.056 -6.902,-5.312 -6.939,-5.564C-5.245,-4.587 -3.347,-4.028 -1.374,-3.928C-1.573,-1.446 -2.608,0.88 -4.321,2.691L-4.543,2.899C-5.557,3.913 -6.116,5.261 -6.116,6.695C-6.116,8.129 -5.557,9.477 -4.543,10.49C-3.345,11.689 -1.648,12.235 0,12.005" style="fill:rgb(12,0,72);fill-rule:nonzero;"/>
        </g>
        <g transform="matrix(6.12323e-17,1,-1,6.12323e-17,385.294,227.149)">
            <path d="M0,-1.187C-0.977,0.507 -1.535,2.405 -1.633,4.376C-4.145,4.173 -6.496,3.114 -8.315,1.363L-8.46,1.216C-10.552,-0.877 -13.958,-0.878 -16.051,1.215C-17.062,2.227 -17.619,3.572 -17.619,5.004C-17.619,5.261 -17.601,5.517 -17.565,5.77C-19.259,4.792 -21.156,4.233 -23.129,4.133C-22.922,1.55 -21.811,-0.864 -19.97,-2.704C-15.765,-6.908 -8.954,-6.957 -4.689,-2.85L-4.543,-2.701C-3.344,-1.503 -1.647,-0.958 0,-1.187" style="fill:rgb(12,0,72);fill-rule:nonzero;"/>
        </g>
    </g>
</svg>
