<?xml version="1.0" encoding="UTF-8" standalone="no"?><!DOCTYPE svg PUBLIC "-//W3C//DTD SVG 1.1//EN" "http://www.w3.org/Graphics/SVG/1.1/DTD/svg11.dtd"><svg width="100%" height="100%" viewBox="0 0 45 60" version="1.1" xmlns="http://www.w3.org/2000/svg" xmlns:xlink="http://www.w3.org/1999/xlink" xml:space="preserve" xmlns:serif="http://www.serif.com/" style="fill-rule:evenodd;clip-rule:evenodd;stroke-linejoin:round;stroke-miterlimit:1.41421;"><path d="M26.25,15.938l0,-15.938l-23.438,0c-1.558,0 -2.812,1.254 -2.812,2.813l0,54.375c0,1.558 1.254,2.812 2.812,2.812l39.376,0c1.558,0 2.812,-1.254 2.812,-2.813l0,-38.437l-15.938,0c-1.546,0 -2.812,-1.266 -2.812,-2.813Zm8.959,24.769l-11.299,11.215c-0.78,0.775 -2.038,0.775 -2.817,0l-11.3,-11.215c-1.189,-1.18 -0.355,-3.206 1.319,-3.206l7.638,0l0,-9.375c0,-1.036 0.839,-1.875 1.875,-1.875l3.75,0c1.036,0 1.875,0.839 1.875,1.875l0,9.375l7.638,0c1.674,0 2.508,2.026 1.321,3.206Zm8.971,-28.401l-11.473,-11.485c-0.527,-0.527 -1.242,-0.82 -1.992,-0.82l-0.715,0l0,15l15,0l0,-0.715c0,-0.738 -0.293,-1.453 -0.82,-1.98Z" style="fill:#fff;fill-rule:nonzero;"/></svg>